<svg xmlns="http://www.w3.org/2000/svg" viewBox="0 0 179.26 179.26"><defs><style>.cls-1{fill:#3c3c3c;}.cls-2{font-size:22.87px;font-family:LucidaBright-Demi, Lucida Bright;font-weight:300;letter-spacing:-0.02em;}.cls-2,.cls-3{fill:#fff;}</style></defs><title>Recurso 3</title><g id="Capa_2" data-name="Capa 2"><g id="Capa_1-2" data-name="Capa 1"><circle class="cls-1" cx="89.63" cy="89.63" r="89.63"/><text class="cls-2" transform="translate(30.5 138.61)">Gatito Plis </text><path class="cls-3" d="M117.85,96.47c-2.41-6.23-4.64-8.13-5.6-9s-5.9-3.9-7-5-2.56-2.78-1.34-3.53,5.09-.14,7.32-2.07a8.43,8.43,0,0,0,2.81-6c0-1.45.41-2.26,1.45-2.45s1-3.12.57-4.26a3.94,3.94,0,0,0-.69-1.42c-.14-.1-.27,0-.39.23-.37.69-.6,2-1.2,1.14s-1.15-1.62-2.49-1.34-1.3-.83.32-.86a1,1,0,0,0,.67-.2,3.07,3.07,0,0,0,.31-.53,2.09,2.09,0,0,1,.64-.65,1.35,1.35,0,0,1,.44-.15c.08,0,.21,0,.26-.1.2-.37-1-.72-1.16-.77-1.09-.25-3.51-1.14-5.32-5.23s-5.76-7.15-9.92-7.19-6.79-.19-4.3-1.38a9.3,9.3,0,0,1,5.45-.47V32.77s.07-4-2.62-4-2.79,4.45-4.5,6.27S85.76,41,86.24,44a9.31,9.31,0,0,0,2.41,5.16c.86,1,1,2.33.38,2.89s-2.16-.78-2-2.16c.07-.87-.81-1.61-1.35-2.19a5.72,5.72,0,0,1-1-1.39,4,4,0,0,1-.28-1.53c0-.92,0-1.83,0-2.75q0-2,.09-4.08s.55-3.41-2.34-3.86-.93,2.86-2.63,5.5a37.22,37.22,0,0,0-4.79,9.08c-1.11,3.57-.81,6.34.3,5.86s4.53-2.41,5.41-1.85.93,1.93-.56,2.81a4.24,4.24,0,0,1-3.4.63c-1.34-.1-1.64,1.38-1.64,1.38s0,3-2.17,1.06c0,0-3.51-3,0-11.68S79.7,37.06,79,36s-6.18,1.5-12,8.4a26.9,26.9,0,0,0-5.84,22.82c1.5,7.61,6.88,14,13.63,17.94s32.72,17.11,36,23.34H79.14s-.2-8.38-3-13.06A52.62,52.62,0,0,0,69,86.09c-.73-.75-3-.94-1.55,1.77s3.86,6.69,4.15,8.8,1.3,10.2,1,13.87h46.22S120.26,102.71,117.85,96.47ZM107.76,67.73a.77.77,0,1,1-.77.77A.76.76,0,0,1,107.76,67.73Zm-2.09-2a.77.77,0,1,1-.77.77A.76.76,0,0,1,105.67,65.69Zm-3.8-5.42L97.14,57.2a5.71,5.71,0,0,1,4.09-3.3S105.4,57.43,101.87,60.27Zm1.25,9.39a.77.77,0,0,1,1.54,0,.77.77,0,1,1-1.54,0Z"/></g></g></svg>